<svg xmlns="http://www.w3.org/2000/svg" viewBox="-3600 -294 14.261 24"><defs><style>.a{fill:#ffcd00;}</style></defs><path class="a" d="M12.18,0H2.075A2.162,2.162,0,0,0,0,2.075v19.85A2.1,2.1,0,0,0,2.075,24H12.18a2.1,2.1,0,0,0,2.075-2.075V2.075A2.04,2.04,0,0,0,12.18,0ZM7.128,22.2a1.444,1.444,0,1,1,1.444-1.444A1.373,1.373,0,0,1,7.128,22.2Zm5.323-4.962A1.233,1.233,0,0,1,11.188,18.5H3.068A1.233,1.233,0,0,1,1.8,17.233V3.338A1.233,1.233,0,0,1,3.068,2.075h8.12a1.233,1.233,0,0,1,1.263,1.263Z" transform="translate(-3600 -294)"/></svg>