<svg xmlns="http://www.w3.org/2000/svg" xmlns:xlink="http://www.w3.org/1999/xlink" width="231.4" height="72.04" viewBox="0 0 231.4 72.04"><defs><style>.cls-1{fill:none;}.cls-2{clip-path:url(#clip-path);}.cls-3{fill:#ffcd02;}.cls-4{fill:#fff;}.cls-5{fill:#0a5d67;}</style><clipPath id="clip-path"><rect class="cls-1" y="0.01" width="231.4" height="72"/></clipPath></defs><title>salauno-logo</title><g id="Layer_2" data-name="Layer 2"><g id="Layer_1-2" data-name="Layer 1"><g id="Layer_2-2" data-name="Layer 2"><g class="cls-2"><g id="Layer_1-2-2" data-name="Layer 1-2"><g class="cls-2"><path class="cls-3" d="M8.47,49.07a16.3,16.3,0,0,1-5.92-.86C.73,47.48,0,46.48,0,44.83v-.09c0-1.5.77-2.48,2.14-2.48,1.59,0,2.32,1.92,6,1.92,2.69,0,4.1-.73,4.1-2.23S11.38,39.79,8,39.39C2.78,38.77.09,36.81.09,32.11s3.6-7.52,9.47-7.52a15.4,15.4,0,0,1,5.29.73c1.86.69,2.41,1.69,2.41,3.06v.17c0,1.59-.82,2.41-2.05,2.41-1.54,0-2.64-1.51-5.58-1.51C7,29.45,6,30.23,6,31.59s1.09,1.86,4.34,2.28c5.69.73,8.06,2.6,8.06,7.44s-3.05,7.75-10,7.75m27.82-2.64c-1.73,1.91-4,2.64-6.92,2.64-4.46,0-7.74-2.48-7.74-7.2,0-5,4-7.48,9.52-7.48a18.5,18.5,0,0,1,4.78.55V32.66c0-2.19-1.18-3.33-4.34-3.33-3.72,0-4.42,1.86-6.2,1.86a2.06,2.06,0,0,1-2-2.28v-.14c0-1.46.62-2.42,2.32-3.1a19.13,19.13,0,0,1,6.92-1.18c6.61,0,10,2.19,10,7.7V45.66c0,2.28-.78,3.37-2.92,3.37h-.14a3.23,3.23,0,0,1-3.23-2.6m-.37-3.37V38.47a20,20,0,0,0-3.42-.27c-2.69,0-4.42,1-4.42,3.29s1.51,3.37,3.72,3.37A6.1,6.1,0,0,0,35.93,43M53.3,21.38V45.74A3,3,0,0,1,50,49h-.09a3,3,0,0,1-3.28-3.29V20c0-2.19.91-3.37,3.14-3.37h.14c2.28,0,3.37,1.41,3.37,4.75m18.44,25c-1.73,1.92-4,2.64-6.92,2.64-4.46,0-7.74-2.48-7.74-7.2,0-5,4-7.48,9.52-7.48a18.52,18.52,0,0,1,4.78.55V32.66c0-2.19-1.18-3.33-4.34-3.33-3.72,0-4.42,1.86-6.2,1.86a2.06,2.06,0,0,1-2-2.28v-.14c0-1.46.62-2.42,2.32-3.1a19.09,19.09,0,0,1,6.92-1.18c6.6,0,10,2.19,10,7.7V45.66c0,2.28-.78,3.37-2.92,3.37H75a3.23,3.23,0,0,1-3.23-2.6m-.42-3.37V38.47a20,20,0,0,0-3.42-.27c-2.69,0-4.42,1-4.42,3.29s1.5,3.37,3.72,3.37a6.1,6.1,0,0,0,4.11-1.81"/><path class="cls-4" d="M98.37,46.43A15.05,15.05,0,0,1,90,49.12c-4,0-7-1.55-7-6.48V27.92a3,3,0,0,1,3.28-3.28h.09a3,3,0,0,1,3.28,3.28V41c0,2.38,1,3.19,3.37,3.19A14.09,14.09,0,0,0,98,43v-15a3,3,0,0,1,3.28-3.28h.09a3,3,0,0,1,3.28,3.28V45.66c0,2.28-.86,3.37-3.1,3.37h-.14c-1.59,0-2.59-.87-3.1-2.6m17.37-15.51V45.74A3,3,0,0,1,112.44,49h-.09a3,3,0,0,1-3.28-3.29V28c0-2.28,1-3.37,3.14-3.37h.14c1.64,0,2.74.78,3.15,2.87a15.46,15.46,0,0,1,8.83-3c3.46,0,6.42,1.32,6.42,6.7V45.74A3,3,0,0,1,127.49,49h-.09a3,3,0,0,1-3.28-3.29V32.89c0-2.38-.91-3.06-3-3.06a15.93,15.93,0,0,0-5.42,1.09m29.88,18.2c-6.74,0-12.2-4.51-12.2-12.18s5.47-12.44,12.2-12.44,12.2,4.74,12.2,12.44-5.47,12.18-12.2,12.18m0-4.74c3.24,0,5.47-2.23,5.47-7.38s-2.23-7.75-5.47-7.75-5.47,2.55-5.47,7.75,2.23,7.38,5.47,7.38"/><path class="cls-5" d="M227,42.88a25.57,25.57,0,0,0,3.29-.25c2-.38,1.14-1.18-1.3-1.24-1.07,0-2.19,0-3.26.06h-.62l-.29-.22L226,41a12.79,12.79,0,0,0,2.61-.65c1.24-.67-.62-1.35-2.92-1.05-1,.14-2,.32-2.87.51l-1.1.25a30.91,30.91,0,0,0-6-.75A73.43,73.43,0,0,0,192,41.81c-3.49,1-1.75,1.86,1.08,2.48-2.78.38-18.74,4.37-18.74,4.37-.4.1-.5.71-.58.74.21,0,1.94.17,3,.24,1.72.11,19.61-4.63,19.61-4.63l1.94.44L183.77,49c-.92.26-2.1,1.09-.38,1.19a11.49,11.49,0,0,0,3.65-.35c1.93-.52,13.39-3.15,14.07-3.36,7,1.67,16.58-.4,21.43-1.47a10.11,10.11,0,0,0,1.34-.4l1.42.19a25.29,25.29,0,0,0,3.28.27c2.38,0,3-.84,1-1.24-.9-.17-1.91-.32-2.91-.44l-.93-.11a1.24,1.24,0,0,0,.11-.35l1.2,0"/><path class="cls-4" d="M179,22.27v3.15a1.33,1.33,0,1,1-2.67,0h0V22.27a1.33,1.33,0,1,1,2.67,0h0m2.54,0v3.15a1.33,1.33,0,1,0,2.67,0h0V22.27a1.33,1.33,0,1,0-2.67,0h0"/><path class="cls-4" d="M179,41.36V47.5c0,1.86-.73,2.69-2.45,2.69a10.73,10.73,0,0,1-2.84-.56c0-.21,0-1,0-1.72h2c.28,0,.51,0,.51-.62V41a20.77,20.77,0,0,0,2.75.32m6.64,6.55h-1.24c-.27,0-.51,0-.51-.62v-6.2a22,22,0,0,1-2.75.25v6.12c0,1.86.73,2.69,2.48,2.69a10.47,10.47,0,0,0,2.84-.57c0-.22,0-1,0-1.72Z"/><path class="cls-3" d="M198,14.19a11.66,11.66,0,0,0-2.19.71l-.79.35a14.89,14.89,0,0,0-1.48-2.95A15.23,15.23,0,0,0,195,10.82a7.54,7.54,0,0,0,1.76-2.4,2,2,0,0,0-3.26-2.17,15,15,0,0,0-2.12,1.92l-.86.94a13.18,13.18,0,0,0-2.9-1.65,20.09,20.09,0,0,0,.88-2,8.36,8.36,0,0,0,.87-3.29c-.14-2.38-2.9-3-4.22-.9a17.7,17.7,0,0,0-1.44,2.93A16.69,16.69,0,0,0,183,6.27a23.31,23.31,0,0,0-2.71-.17c-9.89,0-16,5.65-16,17.69s6.15,17.61,16,17.61,16.06-5.65,16.06-17.61a28.33,28.33,0,0,0-.43-5,12,12,0,0,0,1.74-.62,5.7,5.7,0,0,0,2.07-1.24A1.7,1.7,0,0,0,198,14.19M180.3,34.66c-5.27,0-8.06-3.67-8.06-10.86S175,12.87,180.3,12.87s8.06,3.67,8.06,10.93-2.79,10.86-8.06,10.86"/><path class="cls-3" d="M202.61,13a1.24,1.24,0,0,1,.58.16,1.11,1.11,0,0,1,.45.44,1.24,1.24,0,0,1,.16.62,1.2,1.2,0,0,1-.16.62,1.11,1.11,0,0,1-.44.44,1.18,1.18,0,0,1-1.18,0,1.1,1.1,0,0,1-.44-.44,1.19,1.19,0,0,1-.16-.62,1.24,1.24,0,0,1,.16-.62,1.11,1.11,0,0,1,.45-.44,1.24,1.24,0,0,1,.58-.16m0,.2a1,1,0,0,0-.48.13.93.93,0,0,0-.37.37,1,1,0,0,0,0,1,.91.91,0,0,0,.37.37,1,1,0,0,0,.49.13,1,1,0,0,0,.49-.13.92.92,0,0,0,.37-.37,1,1,0,0,0,0-1,.92.92,0,0,0-.37-.37,1,1,0,0,0-.49-.13m-.52,1.66V13.61h.44a1.06,1.06,0,0,1,.34,0,.32.32,0,0,1,.16.12.33.33,0,0,1,.06.19.34.34,0,0,1-.1.24.39.39,0,0,1-.27.12l.11.07a1.4,1.4,0,0,1,.19.25l.16.25h-.25l-.11-.2a1,1,0,0,0-.22-.3.27.27,0,0,0-.17,0h-.12v.55Zm.2-.72h.25a.4.4,0,0,0,.24-.06.18.18,0,0,0,0-.24.17.17,0,0,0-.09-.07.66.66,0,0,0-.2,0h-.24Z"/><path class="cls-4" d="M61.45,71,59,63.73a1,1,0,0,1-.06-.33.73.73,0,0,1,.74-.73h0a.76.76,0,0,1,.77.62l2,6.1h0l1.92-6.1a.76.76,0,0,1,.77-.62.73.73,0,0,1,.77.68s0,0,0,.06a1.41,1.41,0,0,1-.06.33L63.4,71c-.23.67-.52.91-1,.91s-.75-.24-1-.91m5-.81a5.09,5.09,0,0,1-.23-1.59,5.16,5.16,0,0,1,.22-1.6,2.86,2.86,0,0,1,5.3,0A5.25,5.25,0,0,1,72,68.58a.49.49,0,0,1-.45.53H67.86a.07.07,0,0,0-.08.08,1.4,1.4,0,0,0,.09.5,1.42,1.42,0,0,0,1.46,1,2.17,2.17,0,0,0,1.33-.45,1,1,0,0,1,.55-.21.62.62,0,0,1,.62.62.71.71,0,0,1-.31.62A3.47,3.47,0,0,1,69.2,72a2.62,2.62,0,0,1-2.71-1.8m3.91-2.86a1.38,1.38,0,0,0-2.54,0,1.56,1.56,0,0,0-.08.55.07.07,0,0,0,.07.08h2.55a.07.07,0,0,0,.08-.08,1.6,1.6,0,0,0-.08-.55m4.71-1.24h0a2,2,0,0,1,2.48-.73A.67.67,0,0,1,78,66a.72.72,0,0,1-.67.77h-.07a1.18,1.18,0,0,1-.35-.07,2.26,2.26,0,0,0-.62-.11c-.83,0-1.18.66-1.18,1.64v2.88a.72.72,0,0,1-.65.79h-.1a.73.73,0,0,1-.75-.79v-5a.75.75,0,0,1,1.5,0h0Zm4.2,4a1,1,0,1,1-.95,1h0a1,1,0,0,1,.95-1m5.58.92L82.4,63.73a1,1,0,0,1-.06-.33.74.74,0,0,1,.74-.74h0a.76.76,0,0,1,.77.62l2,6.1h0l1.92-6.1a.77.77,0,0,1,.77-.62.73.73,0,0,1,.77.68s0,0,0,.06a1.56,1.56,0,0,1-.06.33L86.84,71c-.23.67-.52.91-1,.91s-.75-.24-1-.91m6.5-8.41a.9.9,0,1,1-.9.9h0a.9.9,0,0,1,.9-.9m-.81,8.54v-5a.75.75,0,1,1,1.51,0v5a.75.75,0,0,1-1.51,0M95.33,71l-1.79-4.62a.93.93,0,0,1-.07-.37.73.73,0,0,1,1.44-.17l1.46,3.92h0l1.41-3.92a.73.73,0,0,1,1.43.17.91.91,0,0,1-.07.37L97.33,71c-.29.69-.51.91-1,.91s-.71-.23-1-.91m6-8.41a.9.9,0,1,1-.9.9h0a.9.9,0,0,1,.9-.9m-.75,8.54v-5a.75.75,0,0,1,1.5,0h0v5a.75.75,0,0,1-1.5,0h0m5-5h0a2,2,0,0,1,2.48-.73.68.68,0,0,1,.4.62.72.72,0,0,1-.67.77h-.07a1.2,1.2,0,0,1-.35-.07,2.25,2.25,0,0,0-.62-.11c-.83,0-1.18.66-1.18,1.64v2.88a.75.75,0,0,1-1.5,0h0v-5a.75.75,0,0,1,1.5,0h0Zm4.2,4a1,1,0,1,1-.95,1h0a1,1,0,0,1,.95-1m3.72-5.94a.72.72,0,0,1-.19-1.43h5.56a.72.72,0,0,1,.19,1.43h-2a.07.07,0,0,0-.08.08v6.87a.79.79,0,1,1-1.58,0V64.22c0-.06,0-.08-.07-.08Zm8,2h0a2,2,0,0,1,2.46-.73.67.67,0,0,1,.4.62.72.72,0,0,1-.67.77h-.07a1.18,1.18,0,0,1-.35-.07,2.27,2.27,0,0,0-.62-.11c-.83,0-1.18.66-1.18,1.64v2.88a.72.72,0,0,1-.65.79h-.1a.73.73,0,0,1-.75-.79v-5a.75.75,0,0,1,1.5,0h0Zm9.47,5.09a.77.77,0,0,1-1.38.39l-.22-.32h0a2.43,2.43,0,0,1-1.9.71c-1.53,0-2.35-.73-2.35-2,0-1.4,1-2.07,2.57-2.07h1.33a.07.07,0,0,0,.08-.08v-.16c0-.75-.43-1.19-1.45-1.19a2.93,2.93,0,0,0-1.18.27,1.06,1.06,0,0,1-.39.08.58.58,0,0,1-.62-.62.62.62,0,0,1,.38-.62,4,4,0,0,1,2-.44c1.86,0,2.71.91,2.71,2.51v2a1.16,1.16,0,0,0,.14.62l.2.35a.92.92,0,0,1,.12.45M129,69.71v-.58c0-.06,0-.08-.08-.08h-1c-1,0-1.4.28-1.4.87s.38.81,1.13.81,1.42-.33,1.42-1m4.85-3.78a2,2,0,0,1,1.71-.75,2.21,2.21,0,0,1,2.24,2.41v3.5a.75.75,0,0,1-1.5,0h0V68c0-.83-.4-1.41-1.24-1.41s-1.24.58-1.24,1.41V71.1a.75.75,0,0,1-1.5,0h0v-5a.76.76,0,0,1,1.5-.12Zm5.86,5.37a.67.67,0,0,1-.37-.62.68.68,0,0,1,.68-.68h0a.94.94,0,0,1,.47.15,3,3,0,0,0,1.65.53c.74,0,1.2-.28,1.2-.77s-.23-.62-1.07-.71l-.7-.07c-1.33-.15-2-.81-2-1.91s.89-2,2.51-2a4.22,4.22,0,0,1,2,.48.7.7,0,0,1,.45.62.62.62,0,0,1-.58.66h0a1,1,0,0,1-.47-.15,3.28,3.28,0,0,0-1.4-.35c-.67,0-1,.3-1,.68s.24.62,1.07.68l.69.07c1.37.14,2,.83,2,1.91,0,1.29-1,2.18-2.72,2.18a4.3,4.3,0,0,1-2.36-.66m9.07-8.63a.68.68,0,0,1,.77.68A.65.65,0,0,1,149,64h-.06c-.62,0-.78.17-.78.78v.46a.07.07,0,0,0,.05.08H149a.57.57,0,0,1,.62.62.56.56,0,0,1-.55.58h-.81a.07.07,0,0,0-.08.08v4.5a.75.75,0,1,1-1.51,0v-4.5c0-.06,0-.08-.09-.08h-.22a.56.56,0,0,1-.62-.58.57.57,0,0,1,.52-.62h.32c.06,0,.09,0,.09-.08v-.43c0-1.57.67-2.15,2.15-2.15Zm1.82,7.5a6.07,6.07,0,0,1,0-3.2A2.88,2.88,0,0,1,156,67a6.06,6.06,0,0,1,0,3.2,2.88,2.88,0,0,1-5.33,0m3.88-.4a3.64,3.64,0,0,0,.14-1.19,3.72,3.72,0,0,0-.14-1.2,1.2,1.2,0,0,0-1.21-.84,1.24,1.24,0,0,0-1.24.84,3.77,3.77,0,0,0-.14,1.2,3.68,3.68,0,0,0,.14,1.19,1.24,1.24,0,0,0,1.24.85,1.2,1.2,0,0,0,1.21-.85m4.78-3.68h0a2,2,0,0,1,2.46-.73.68.68,0,0,1,.4.62.72.72,0,0,1-.67.77h-.07a1.2,1.2,0,0,1-.35-.07,2.26,2.26,0,0,0-.62-.11c-.83,0-1.18.66-1.18,1.64v2.88a.75.75,0,0,1-1.5,0h0v-5a.75.75,0,0,1,1.5,0h0Zm4.13,0A.76.76,0,0,1,165,66h0a2,2,0,0,1,1.71-.75,2.08,2.08,0,0,1,1.77.86h0a2.66,2.66,0,0,1,2.07-.86,2.23,2.23,0,0,1,2.34,2.41v3.5a.75.75,0,1,1-1.5,0V68c0-.83-.42-1.41-1.24-1.41A1.24,1.24,0,0,0,168.88,68v3.15a.75.75,0,0,1-1.51,0V68c0-.83-.42-1.41-1.24-1.41A1.24,1.24,0,0,0,164.89,68v3.15a.76.76,0,1,1-1.51,0Zm16.89,5.12a.71.71,0,0,1-.71.7h0a.72.72,0,0,1-.62-.31l-.22-.32h0a2.43,2.43,0,0,1-1.9.71c-1.53,0-2.35-.73-2.35-2,0-1.4,1-2.07,2.57-2.07h1.33a.07.07,0,0,0,.08-.08v-.16c0-.75-.43-1.19-1.45-1.19a2.93,2.93,0,0,0-1.18.27,1.07,1.07,0,0,1-.39.08.58.58,0,0,1-.62-.62.65.65,0,0,1,.38-.62,4,4,0,0,1,2-.44c1.86,0,2.71.91,2.71,2.51v2a1.17,1.17,0,0,0,.14.62l.2.35a.91.91,0,0,1,.12.45m-1.86-1.46v-.58c0-.06,0-.08-.08-.08h-1.07c-1,0-1.4.28-1.4.87s.39.81,1.13.81,1.42-.33,1.42-1m4.83-3.63h0a2,2,0,0,1,2.48-.73.68.68,0,0,1,.4.62.72.72,0,0,1-.67.77h-.07a1.19,1.19,0,0,1-.35-.07,2.27,2.27,0,0,0-.62-.11c-.83,0-1.18.66-1.18,1.64v2.88a.75.75,0,1,1-1.51,0V66a.75.75,0,1,1,1.51,0h0Zm3.93,4a1,1,0,1,1-1,1,1,1,0,0,1,1-1h0"/></g></g></g></g></g></g></svg>